<?xml version="1.0" encoding="UTF-8"?>
<svg width="840px" height="158px" viewBox="0 0 840 158" version="1.1" xmlns="http://www.w3.org/2000/svg" xmlns:xlink="http://www.w3.org/1999/xlink">
    <!-- Generator: Sketch 63.1 (92452) - https://sketch.com -->
    <title>Isologo-properati</title>
    <desc>Created with Sketch.</desc>
    <g id="Page-1" stroke="none" stroke-width="1" fill="none" fill-rule="evenodd">
        <g id="06-Logo" transform="translate(-540.000000, -613.000000)">
            <g id="Isologo-properati" transform="translate(540.000000, 613.000000)">
                <g id="Iso">
                    <path d="M13.2668737,31.4558298 L72.8445825,1.68797422 C77.3490223,-0.562658072 82.6509777,-0.562658072 87.1554175,1.68797422 L146.733126,31.4558298 C154.863943,35.5183723 160,43.8228291 160,52.9069503 L160,142.011279 C160,150.841606 152.836556,158 144,158 L16,158 C7.163444,158 0,150.841606 0,142.011279 L0,52.9069503 C0,43.8228291 5.13605703,35.5183723 13.2668737,31.4558298 Z" id="Rectangle" fill="#EE4252"></path>
                    <path d="M82.5806452,48 C99,48 115,55 115,76.1081081 C115,97 99,104 82.5806452,104.216216 L69.6129032,104.216216 L69.6129032,128 L48,128 L48,48 L82.5806452,48 Z M79.3387097,66.3783784 L69.6129032,66.3783784 L69.6129032,88 L79.3387097,88 C85.4069479,88 91.2258065,85.2972973 91.2258065,77.1891892 C91.2258065,69.1985899 85.5743883,66.4578529 79.3387097,66.3783784 Z" id="Combined-Shape" fill="#FFFFFF"></path>
                </g>
                <path d="M385,58 C407.09139,58 425,75.90861 425,98 C425,120.09139 407.09139,138 385,138 C362.90861,138 345,120.09139 345,98 C345,75.90861 362.90861,58 385,58 Z M234,61 C249.19403,61 264,67.475 264,87 C264,106.325 249.19403,112.8 234,113 L222,113 L222,135 L200,135 L200,61 L234,61 Z M472,61 C487.176471,61 502,67.475 502,87 C502,106.325 487.176471,112.8 472,113 L459,113 L459,135 L437,135 L437,61 L472,61 Z M569,61 L569,78 L532,78 L532,91 L565,91 L565,105 L532,105 L532,118 L569,118 L569,135 L510,135 L510,61 L569,61 Z M806,61 L806,80 L784,80 L784,135 L761,135 L761,80 L739,80 L739,61 L806,61 Z M840,61 L840,135 L818,135 L818,61 L840,61 Z M710,59 L740,135 L718,135 L713,122 L685,122 L680,135 L658,135 L688,59 L710,59 Z M307,61 C322.142857,61 337,67.475 337,87 C337,98.5856207 331.623288,105.584713 324,109 L337,135 L315,135 L304,113 L292,113 L292,135 L272,135 L272,61 L307,61 Z M620,61 C635.142857,61 650,67.475 650,87 C650,98.5856207 644.623288,105.584713 637,109 L650,135 L628,135 L617,113 L605,113 L605,135 L585,135 L585,61 L620,61 Z M385.487805,78 C373.954305,78 365,86.954305 365,98.4878049 C365,109.045695 373.954305,118 385.487805,118 C396.045695,118 405,109.045695 405,98.4878049 C405,86.954305 396.045695,78 385.487805,78 Z M699.533333,87 L691,107 L707,107 L699.533333,87 Z M223,78 L223,98 L232,98 C237.615385,98 243,95.5 243,88 C243,80.6086957 237.770329,78.073514 232,78 L223,78 Z M459,78 L459,98 L468,98 C473.615385,98 479,95.5 479,88 C479,80.6086957 473.770329,78.073514 468,78 L459,78 Z M292,78 L292,97 L304,97 C309.550769,97 315,94.625 315,88 C315,80.4829545 309.714646,78.0730601 304,78 L292,78 Z M605,78 L605,97 L617,97 C622.550769,97 628,94.625 628,88 C628,80.4829545 622.714646,78.0730601 617,78 L605,78 Z" id="Logo" fill="#313037"></path>
            </g>
        </g>
    </g>
</svg>